<svg xmlns="http://www.w3.org/2000/svg" width="19.106" height="11.941" viewBox="0 0 19.106 11.941">
  <path id="Icon_awesome-google-plus-g" data-name="Icon awesome-google-plus-g" d="M12.507,9.615a5.065,5.065,0,0,1,.1.994,5.507,5.507,0,0,1-5.734,5.832,5.971,5.971,0,1,1,0-11.941,5.7,5.7,0,0,1,4,1.564L9.249,7.62A3.352,3.352,0,0,0,6.871,6.7a3.772,3.772,0,0,0,0,7.543,3.234,3.234,0,0,0,3.389-2.574H6.871V9.615h5.637Zm5.766.2V8.082H16.532V9.816H14.8v1.741h1.733V13.29h1.741V11.557h1.733V9.816H18.273Z" transform="translate(-0.9 -4.5)" fill="#ff4343"/>
</svg>
