<svg xmlns="http://www.w3.org/2000/svg" width="20.072" height="20.072" viewBox="0 0 20.072 20.072">
  <path id="Icon_awesome-phone" data-name="Icon awesome-phone" d="M19.342.964,15.265.023a.947.947,0,0,0-1.078.545L12.305,4.959a.938.938,0,0,0,.27,1.1L14.951,8A14.529,14.529,0,0,1,8,14.948L6.06,12.572a.94.94,0,0,0-1.1-.27L.572,14.183a.952.952,0,0,0-.549,1.082l.941,4.077a.941.941,0,0,0,.917.729,18.188,18.188,0,0,0,18.19-18.19A.94.94,0,0,0,19.342.964Z" transform="translate(0.001 0.001)" fill="#202387"/>
</svg>
