<svg xmlns="http://www.w3.org/2000/svg" width="11.74" height="13.417" viewBox="0 0 11.74 13.417">
  <path id="Icon_awesome-calendar-alt" data-name="Icon awesome-calendar-alt" d="M0,12.159a1.258,1.258,0,0,0,1.258,1.258h9.224a1.258,1.258,0,0,0,1.258-1.258V5.031H0ZM8.386,7.023A.315.315,0,0,1,8.7,6.708H9.748a.315.315,0,0,1,.314.314V8.071a.315.315,0,0,1-.314.314H8.7a.315.315,0,0,1-.314-.314Zm0,3.354a.315.315,0,0,1,.314-.314H9.748a.315.315,0,0,1,.314.314v1.048a.315.315,0,0,1-.314.314H8.7a.315.315,0,0,1-.314-.314ZM5.031,7.023a.315.315,0,0,1,.314-.314H6.394a.315.315,0,0,1,.314.314V8.071a.315.315,0,0,1-.314.314H5.346a.315.315,0,0,1-.314-.314Zm0,3.354a.315.315,0,0,1,.314-.314H6.394a.315.315,0,0,1,.314.314v1.048a.315.315,0,0,1-.314.314H5.346a.315.315,0,0,1-.314-.314ZM1.677,7.023a.315.315,0,0,1,.314-.314H3.04a.315.315,0,0,1,.314.314V8.071a.315.315,0,0,1-.314.314H1.992a.315.315,0,0,1-.314-.314Zm0,3.354a.315.315,0,0,1,.314-.314H3.04a.315.315,0,0,1,.314.314v1.048a.315.315,0,0,1-.314.314H1.992a.315.315,0,0,1-.314-.314Zm8.8-8.7H9.224V.419A.421.421,0,0,0,8.8,0H7.966a.421.421,0,0,0-.419.419V1.677H4.193V.419A.421.421,0,0,0,3.774,0H2.935a.421.421,0,0,0-.419.419V1.677H1.258A1.258,1.258,0,0,0,0,2.935V4.193H11.74V2.935A1.258,1.258,0,0,0,10.482,1.677Z" fill="#c6cadf"/>
</svg>
