<svg xmlns="http://www.w3.org/2000/svg" width="11.942" height="11.941" viewBox="0 0 11.942 11.941">
  <path id="Icon_awesome-linkedin-in" data-name="Icon awesome-linkedin-in" d="M2.673,11.942H.2V3.969H2.673ZM1.434,2.882A1.441,1.441,0,1,1,2.868,1.434,1.446,1.446,0,0,1,1.434,2.882Zm10.505,9.06H9.469V8.061c0-.925-.019-2.111-1.287-2.111-1.287,0-1.484,1-1.484,2.044v3.948H4.224V3.969H6.6V5.057h.035A2.6,2.6,0,0,1,8.975,3.77c2.506,0,2.966,1.65,2.966,3.793v4.379Z" transform="translate(0 -0.001)" fill="#0078b5"/>
</svg>
