<svg xmlns="http://www.w3.org/2000/svg" width="16.501" height="16.501" viewBox="0 0 16.501 16.501">
  <path id="Icon_awesome-phone" data-name="Icon awesome-phone" d="M15.9.792,12.549.019a.778.778,0,0,0-.886.448L10.116,4.076a.771.771,0,0,0,.222.9l1.953,1.6A11.944,11.944,0,0,1,6.58,12.288l-1.6-1.953a.773.773,0,0,0-.9-.222L.47,11.659a.783.783,0,0,0-.451.889L.792,15.9a.773.773,0,0,0,.754.6A14.952,14.952,0,0,0,16.5,1.547.773.773,0,0,0,15.9.792Z" transform="translate(0.001 0.001)" fill="#c6cadf"/>
</svg>
