<svg xmlns="http://www.w3.org/2000/svg" width="14.703" height="11.941" viewBox="0 0 14.703 11.941">
  <path id="Icon_awesome-twitter" data-name="Icon awesome-twitter" d="M13.191,6.357c.009.131.009.261.009.392a8.515,8.515,0,0,1-8.573,8.573A8.515,8.515,0,0,1,0,13.969a6.234,6.234,0,0,0,.728.037,6.035,6.035,0,0,0,3.741-1.287,3.019,3.019,0,0,1-2.817-2.09,3.8,3.8,0,0,0,.569.047,3.187,3.187,0,0,0,.793-.1A3.014,3.014,0,0,1,.6,7.616V7.579a3.035,3.035,0,0,0,1.362.382,3.018,3.018,0,0,1-.933-4.03A8.565,8.565,0,0,0,7.239,7.084a3.4,3.4,0,0,1-.075-.69A3.016,3.016,0,0,1,12.38,4.332,5.933,5.933,0,0,0,14.292,3.6a3.005,3.005,0,0,1-1.325,1.661A6.041,6.041,0,0,0,14.7,4.8a6.477,6.477,0,0,1-1.511,1.558Z" transform="translate(0 -3.381)" fill="#1da1f2"/>
</svg>
