<svg id="noun-cargo-3970631" xmlns="http://www.w3.org/2000/svg" width="61.256" height="61.369" viewBox="0 0 61.256 61.369">
  <path id="Path_35" data-name="Path 35" d="M167.377,298.2,147.66,293.01v9.484l24.693,6.5V287.379l-4.164,10.411a.685.685,0,0,1-.811.409Z" transform="translate(-142.41 -255.854)" fill="#202387"/>
  <path id="Path_36" data-name="Path 36" d="M147.66,426.007l24.693,6.5v-6.812l-24.693-6.5Z" transform="translate(-142.41 -371.137)" fill="#202387"/>
  <path id="Path_37" data-name="Path 37" d="M135.506,217.314l-24.729-6.507L105.8,223.242l24.729,6.507Z" transform="translate(-105.804 -188.886)" fill="#202387"/>
  <path id="Path_38" data-name="Path 38" d="M160.652,115.433a2.058,2.058,0,1,0-2.058-2.058A2.06,2.06,0,0,0,160.652,115.433Z" transform="translate(-151.973 -101.875)" fill="#202387"/>
  <path id="Path_39" data-name="Path 39" d="M512.026,52.551a3.43,3.43,0,1,0-3.43-3.43A3.433,3.433,0,0,0,512.026,52.551Z" transform="translate(-458.076 -44.48)" fill="#202387"/>
  <path id="Path_41" data-name="Path 41" d="M355.47,432.506l24.693-6.5V419.2l-24.693,6.5Z" transform="translate(-324.156 -371.137)" fill="#202387"/>
  <path id="Path_42" data-name="Path 42" d="M357.38,217.314l4.974,12.435,24.729-6.507-4.974-12.435Z" transform="translate(-325.826 -188.886)" fill="#202387"/>
  <path id="Path_43" data-name="Path 43" d="M360.27,298.213a.685.685,0,0,1-.636-.431l-4.165-10.412v21.613l24.693-6.5V293l-19.717,5.188a.648.648,0,0,1-.174.024Z" transform="translate(-324.155 -255.846)" fill="#202387"/>
  <path id="Path_44" data-name="Path 44" d="M192.6,166.9c-5.313,5.208-5.122,5.375-5.659,5.375-.522,0-.264-.086-5.614-5.33l-17.647,4.644,23.369,6.15,23.369-6.15Z" transform="translate(-156.422 -150.486)" fill="#202387"/>
  <path id="Icon_awesome-snowflake" data-name="Icon awesome-snowflake" d="M14.114,11.067l-1.084-.625.834-.224a.5.5,0,0,0,.349-.606l-.128-.478a.5.5,0,0,0-.606-.349l-2.27.609L9.161,8.207l2.045-1.183,2.27.609a.5.5,0,0,0,.606-.349l.128-.478a.5.5,0,0,0-.349-.606l-.834-.224,1.084-.625a.5.5,0,0,0,.183-.676l-.5-.859a.5.5,0,0,0-.676-.183l-1.084.625.224-.834a.5.5,0,0,0-.349-.606l-.478-.128a.5.5,0,0,0-.606.349l-.609,2.27L8.206,6.47V3.985L9.927,2.263a.515.515,0,0,0,0-.725l-.362-.362a.515.515,0,0,0-.725,0l-.635.632V.513A.514.514,0,0,0,7.693,0H6.667a.514.514,0,0,0-.513.513v1.3l-.632-.632a.515.515,0,0,0-.725,0l-.365.362a.509.509,0,0,0,0,.725L6.154,3.985V6.47L4.141,5.309l-.609-2.27a.5.5,0,0,0-.606-.349l-.478.128a.5.5,0,0,0-.349.606l.224.834L1.239,3.632a.5.5,0,0,0-.676.183l-.5.856a.5.5,0,0,0,.183.676l1.084.625L.5,6.2a.5.5,0,0,0-.353.609l.128.478a.5.5,0,0,0,.606.349l2.27-.609L5.2,8.207,3.15,9.39.88,8.781a.5.5,0,0,0-.606.349l-.128.478a.5.5,0,0,0,.349.606l.834.224-1.084.628a.5.5,0,0,0-.183.676l.5.859a.5.5,0,0,0,.676.183L2.32,12.16l-.224.834a.5.5,0,0,0,.349.606l.478.128a.5.5,0,0,0,.606-.349l.609-2.27L6.151,9.948v2.485L4.429,14.154a.509.509,0,0,0,0,.725l.362.362a.515.515,0,0,0,.725,0l.632-.632V15.9a.514.514,0,0,0,.513.513H7.686A.514.514,0,0,0,8.2,15.9v-1.3l.632.632a.515.515,0,0,0,.725,0l.362-.362a.515.515,0,0,0,0-.725L8.206,12.429V9.945l2.013,1.161.609,2.27a.5.5,0,0,0,.606.349l.478-.128a.5.5,0,0,0,.349-.606l-.224-.834,1.084.625A.5.5,0,0,0,13.8,12.6l.5-.859A.49.49,0,0,0,14.114,11.067Z" transform="translate(23.449 0)" fill="#202387"/>
</svg>
