<svg xmlns="http://www.w3.org/2000/svg" width="62.496" height="67.109" viewBox="0 0 62.496 67.109">
  <g id="Group_33" data-name="Group 33" transform="translate(-1293.057 -1777.916)">
    <g id="noun-box-trolley-23382" transform="translate(1293.057 1777.916)">
      <path id="Path_58" data-name="Path 58" d="M507.744,0h-6.76l9.031,9.031V2.272A2.272,2.272,0,0,0,507.744,0Z" transform="translate(-451.642 0)" fill="#202387"/>
      <path id="Path_59" data-name="Path 59" d="M199.421,0a2.272,2.272,0,0,0-2.272,2.272v40.9a2.273,2.273,0,0,0,2.272,2.273h40.9a2.272,2.272,0,0,0,2.272-2.273V12.7L229.891,0Zm27.329,42.984h-2.1v-2.1h2.1Zm7.4-2.1h2.1v2.1h-2.1Zm-2.44,2.1h-2.1v-2.1h2.1Z" transform="translate(-184.206 0)" fill="#202387"/>
      <path id="Path_60" data-name="Path 60" d="M100.123,117.254V79.26H89.25v2.891h7.982v37.994h54.514v-2.892Z" transform="translate(-89.25 -69.762)" fill="#202387"/>
      <path id="Path_61" data-name="Path 61" d="M199.242,439.39a7.227,7.227,0,1,0,7.227,7.227A7.226,7.226,0,0,0,199.242,439.39Zm0,9.5a2.272,2.272,0,1,1,2.272-2.272A2.272,2.272,0,0,1,199.242,448.889Z" transform="translate(-179.7 -386.734)" fill="#202387"/>
      <path id="Path_62" data-name="Path 62" d="M442.622,439.39a7.227,7.227,0,1,0,7.226,7.227A7.226,7.226,0,0,0,442.622,439.39Zm0,9.5a2.272,2.272,0,1,1,2.271-2.272A2.272,2.272,0,0,1,442.622,448.889Z" transform="translate(-393.913 -386.734)" fill="#202387"/>
    </g>
    <path id="Icon_metro-warning" data-name="Icon metro-warning" d="M16.822,4.51l11.943,23.8H4.878L16.822,4.51Zm0-2.582a2.06,2.06,0,0,0-1.695,1.243L2.962,27.417c-.932,1.657-.139,3.013,1.762,3.013h24.2c1.9,0,2.694-1.356,1.762-3.013h0L18.516,3.171A2.06,2.06,0,0,0,16.822,1.928ZM18.6,25.086A1.781,1.781,0,1,1,16.822,23.3,1.781,1.781,0,0,1,18.6,25.086Zm-1.781-3.563a1.781,1.781,0,0,1-1.781-1.781V14.4a1.781,1.781,0,0,1,3.563,0v5.344A1.781,1.781,0,0,1,16.822,21.523Z" transform="translate(1311.937 1784.264)" fill="#fff"/>
  </g>
</svg>
