<svg xmlns="http://www.w3.org/2000/svg" width="56.225" height="64.243" viewBox="0 0 56.225 64.243">
  <g id="noun-document-1000823" transform="translate(-96.352 -21.59)">
    <path id="Path_63" data-name="Path 63" d="M484.93,113.87v8.311c0,.474.541.875,1.18.875h9.254a3.511,3.511,0,0,0-.286-.308l-9.866-8.675c-.087-.076-.188-.135-.282-.2Z" transform="translate(-343.693 -80.809)" fill="#202387"/>
    <path id="Path_64" data-name="Path 64" d="M166.052,29.61h2.677v.172l1.548,1.1a4.576,4.576,0,0,1,.487.362l1.407,1.237V25.607a4.019,4.019,0,0,0-4.016-4.016H127.86a4.019,4.019,0,0,0-4.016,4.016v50.87a4.011,4.011,0,0,0,4.016,4.016h4.016V35.835a6.392,6.392,0,0,1,6.532-6.226Z" transform="translate(-27.492)" fill="#202387"/>
    <path id="Path_65" data-name="Path 65" d="M245.356,120.27a3.719,3.719,0,0,1-3.858-3.552v-9.086H213.854A3.715,3.715,0,0,0,210,111.18v46.426a3.715,3.715,0,0,0,3.855,3.548l36.667.027h.014a5.215,5.215,0,0,0,3.682-1.486,4.314,4.314,0,0,0,1.3-3.052V120.27Zm2.127,31.548H218.032V149.14h29.451Zm0-6.694H218.032v-2.677h29.451Zm0-6.693H218.032v-2.677h29.451Zm0-6.694H218.032V129.06h29.451Z" transform="translate(-102.938 -75.346)" fill="#202387"/>
  </g>
</svg>
