<svg id="noun-plane-4540423" xmlns="http://www.w3.org/2000/svg" width="100.926" height="52.261" viewBox="0 0 100.926 52.261">
  <path id="Path_24" data-name="Path 24" d="M157.518,158.988c-22.421-6.39-36.322-9.865-36.322-9.865s-5.717-1.233-8.3,1.233c-2.578,2.578-4.932,3.587-2.578,5.717,1.457,1.345,10.2,6.166,16.255,9.641a4.1,4.1,0,0,1,.224,7.062l-9.641,5.942s-12-9.417-17.039-6.39c-5.156,3.027,4.708,14.685,4.708,14.685a5.714,5.714,0,0,0-1.457,7.735c1.794,3.027,27.015-2.467,48.092-8.632a5.345,5.345,0,0,1,5.717,1.906,104.391,104.391,0,0,0,10.425,11.434,5.6,5.6,0,0,0,7.062.673c5.381-3.587,4.148-7.4,4.148-7.4l-2.578-14.909c.56-.224,1.121-.56,1.57-.784,12.555-6.614,21.747-6.39,21.747-21.3,0,0-10.2-11.1-42.038,3.252Zm-20.851,29.033a155.69,155.69,0,0,1-30.043,4.821.448.448,0,1,1,0-.9,152.29,152.29,0,0,0,29.931-4.932c15.919-4.148,39.236-12.555,59.863-29.483a.482.482,0,0,1,.561.784c-20.851,17.04-44.28,25.559-60.311,29.707Zm60.423-24.551c-11.434,10.65-40.468,19.618-40.692,19.73h-.112c-.224,0-.448-.112-.448-.336a.428.428,0,0,1,.336-.56c.337-.112,29.033-9.08,40.356-19.505a.42.42,0,0,1,.673,0c.112.224.112.56-.113.672Z" transform="translate(-98.629 -148.815)" fill="#202387"/>
</svg>
