<svg id="noun-cargo-2085351" xmlns="http://www.w3.org/2000/svg" width="69.098" height="61.098" viewBox="0 0 69.098 61.098">
  <path id="Path_30" data-name="Path 30" d="M255.663,49.867l3.608,1.2V45.641H252v5.426Z" transform="translate(-230.177 -45.532)" fill="#202387"/>
  <path id="Path_31" data-name="Path 31" d="M194.913,70.256V44.8h-6.546v8.553l-5.8-1.92-5.841,1.913V44.8H168V70.256Z" transform="translate(-157.091 -44.799)" fill="#202387"/>
  <path id="Path_32" data-name="Path 32" d="M153.1,263.421V257.6H84v5.819h2.182v21.093H84v6.546h69.1v-6.546h-2.182V263.422ZM94.91,286.3H92.728v-24H94.91Zm7.273,0H100v-24h2.182Zm6.546,0h-2.182v-24h2.182Zm6.546,0h-2.182v-24h2.182Zm7.273,0h-2.182v-24h2.182Zm7.273,0H127.64v-24h2.182Zm7.273,0h-2.182v-24H137.1Zm6.546,0H141.46v-24h2.182Z" transform="translate(-84 -229.963)" fill="#202387"/>
  <path id="Path_33" data-name="Path 33" d="M440.463,94.537l3.608,1.193V90.443H436.8v5.295Z" transform="translate(-390.974 -84.514)" fill="#202387"/>
  <path id="Path_34" data-name="Path 34" d="M407.273,97.974l-5.8-1.92-5.841,1.913V89.544H392V109.19h21.107V89.544h-5.833Z" transform="translate(-351.994 -83.732)" fill="#202387"/>
</svg>
