<svg id="noun-travel-3481642" xmlns="http://www.w3.org/2000/svg" width="76.333" height="73.106" viewBox="0 0 76.333 73.106">
  <path id="Path_45" data-name="Path 45" d="M180.228,219.637a26.215,26.215,0,0,0,4.847-12.256,16.324,16.324,0,0,1-2.033.135,8.948,8.948,0,0,1-6.607-2.434,27.621,27.621,0,0,1-3.638-4.605c-1.789-2.694-2.459-3.7-7.073-2.932h0a14.7,14.7,0,0,1-2.4.219c-3.817,0-4.834-2.008-5.61-3.538-.541-1.066-.892-1.684-1.844-2-2.189-.73-3.591-1.853-4.165-3.338-.909-2.35.5-4.855,1.522-6.684.211-.376.409-.731.565-1.04a4.8,4.8,0,0,0,.035-2.867h0a26.338,26.338,0,0,0-13.906,7.618,6.215,6.215,0,0,1,1.652,1.7,14.674,14.674,0,0,0,3.885,3.44c2.607,1.836,5.561,3.918,5.561,7.834a6.579,6.579,0,0,1-2.814,5.793,6.287,6.287,0,0,0-2.5,3.75c-.181.725-.314,1.476-.443,2.2-.618,3.492-1.313,7.408-7.807,8.8a26.322,26.322,0,0,0,41.137,2.245Zm-25.982-15.21a11.211,11.211,0,0,1,4.107-2.406c2.316-.737,5.824-.9,9.381,2.492a1.324,1.324,0,0,1,.187.222,4.112,4.112,0,0,0,3.294,1.823c1.574.275,3.729.653,4.765,3.762.7,2.106.249,4.89-1.243,7.64h0a1.318,1.318,0,0,1-1.127,2.38c-.113-.052-.224-.108-.336-.161a13.868,13.868,0,0,1-7.236,4.911h0a9.569,9.569,0,0,1-2.38.329,5.347,5.347,0,0,1-3.371-1.069c-1.833-1.419-2.687-4.071-2.687-8.345,0-1.195-1.156-2.417-2.275-3.6a10.393,10.393,0,0,1-2.445-3.366c-.576-1.617-.117-3.17,1.365-4.617Z" transform="translate(-132.567 -157.397)" fill="#202387"/>
  <path id="Path_46" data-name="Path 46" d="M260.788,362.29c0,3.3.56,5.406,1.665,6.261.752.582,1.922.674,3.478.271a11.059,11.059,0,0,0,5.538-3.64c-.12-.073-.241-.145-.36-.221a1.318,1.318,0,1,1,1.418-2.221c.143.091.289.179.435.267l.006-.01c1.116-2.053,1.524-4.184,1.065-5.561-.539-1.618-1.268-1.746-2.72-2a6.7,6.7,0,0,1-4.944-2.827,6.937,6.937,0,0,0-4.785-2.1,7.661,7.661,0,0,0-4.937,2.081l-.007.006c-1.371,1.337-1.006,2.005,1.153,4.285,1.4,1.484,3,3.165,3,5.41Zm3.733-5.709a1.318,1.318,0,0,1,1.838.3,22.574,22.574,0,0,0,1.98,2.4,1.318,1.318,0,1,1-1.912,1.814,25.234,25.234,0,0,1-2.211-2.678,1.317,1.317,0,0,1,.305-1.838Z" transform="translate(-233.118 -303.678)" fill="#202387"/>
  <path id="Path_47" data-name="Path 47" d="M290.541,92.771a5.271,5.271,0,1,0-10.541,0c0,2.026,2.9,7.151,5.271,10.806C287.644,99.922,290.541,94.8,290.541,92.771Zm-7.906,0a2.639,2.639,0,1,1,.773,1.862,2.636,2.636,0,0,1-.773-1.862Z" transform="translate(-253.647 -80.277)" fill="#202387"/>
  <path id="Path_48" data-name="Path 48" d="M250.287,186.925a5.656,5.656,0,0,1,3.361,3.311c.783,1.545,1.3,2.565,5.23,1.911,2.887-.481,4.855-.328,6.382.5a9.75,9.75,0,0,1,3.319,3.578,25.033,25.033,0,0,0,3.307,4.2c1.476,1.476,3.819,1.968,6.967,1.474,0-.181.007-.361.007-.542h0a26.363,26.363,0,0,0-17.19-24.716c-1.318,2.2-2.522,3.966-2.808,4.381h0a1.318,1.318,0,0,1-2.168,0c-.355-.514-2.114-3.09-3.757-6.015-.144,0-.287,0-.43,0-.838,0-1.666.041-2.484.118a6.9,6.9,0,0,1-.291,4.425c-.182.365-.4.746-.622,1.149-.812,1.449-1.824,3.252-1.362,4.445.277.719,1.132,1.321,2.541,1.791Z" transform="translate(-226.153 -154.598)" fill="#202387"/>
  <path id="Path_49" data-name="Path 49" d="M108.371,271.368c5.666-.849,6.1-3.272,6.734-6.858.136-.771.278-1.568.481-2.381a8.875,8.875,0,0,1,3.347-5.119,4.041,4.041,0,0,0,1.885-3.785c0-2.549-2.059-4-4.443-5.679a16.771,16.771,0,0,1-4.559-4.131h0a3.455,3.455,0,0,0-1.209-1.142,26.3,26.3,0,0,0-2.235,29.1Z" transform="translate(-105.006 -211.742)" fill="#202387"/>
  <path id="Path_50" data-name="Path 50" d="M441.938,39.722l-7.552,4.532a1.318,1.318,0,0,1-1.609-.2l-.932-.932a2.636,2.636,0,0,0-3.758.031,2.694,2.694,0,0,0,.095,3.76l.868.868a1.318,1.318,0,0,1,.2,1.61l-4.532,7.553a1.315,1.315,0,0,0,.2,1.61l1.34,1.341,6.522-6.522a1.317,1.317,0,0,1,1.864,0l3.727,3.727h0a1.317,1.317,0,0,1,0,1.864l-.409.409a1.316,1.316,0,0,0-.2,1.61l.868,1.447,8.794-8.794-1.447-.868a1.316,1.316,0,0,0-1.609.2l-.409.409a1.317,1.317,0,0,1-1.864,0l-3.727-3.727a1.318,1.318,0,0,1,0-1.864l6.522-6.522-1.341-1.34a1.316,1.316,0,0,0-1.61-.2Z" transform="translate(-376.409 -39.534)" fill="#202387"/>
  <path id="Path_51" data-name="Path 51" d="M405.088,455.315h-.063c-.622-.029-1.253-.082-1.874-.158-.526-.064-2.538-.146-3.058-.242h0a1.318,1.318,0,1,1,.482-2.591c.465.086,2.423.16,2.894.217.556.068,1.12.115,1.678.142a1.318,1.318,0,0,1-.061,2.634Z" transform="translate(-354.742 -390.141)" fill="#202387"/>
  <path id="Path_52" data-name="Path 52" d="M469.948,449.7a1.318,1.318,0,0,1-.257-2.61,22.344,22.344,0,0,0,2.994-.82,1.318,1.318,0,1,1,.873,2.487,24.883,24.883,0,0,1-3.349.917,1.293,1.293,0,0,1-.261.026Z" transform="translate(-413.872 -384.956)" fill="#202387"/>
  <path id="Path_53" data-name="Path 53" d="M525.238,420.688a1.318,1.318,0,0,1-.724-2.42,22.526,22.526,0,0,0,2.475-1.88,1.318,1.318,0,1,1,1.735,1.984,25.3,25.3,0,0,1-2.765,2.1A1.314,1.314,0,0,1,525.238,420.688Z" transform="translate(-460.833 -359.359)" fill="#202387"/>
  <path id="Path_54" data-name="Path 54" d="M568.122,374.328a1.318,1.318,0,0,1-1.08-2.072,22.19,22.19,0,0,0,1.6-2.667,1.318,1.318,0,1,1,2.351,1.192,24.934,24.934,0,0,1-1.785,2.983,1.316,1.316,0,0,1-1.082.564Z" transform="translate(-497.262 -319.272)" fill="#202387"/>
  <path id="Path_55" data-name="Path 55" d="M592.332,317.254a1.319,1.319,0,0,1-1.286-1.611,22.607,22.607,0,0,0,.4-2.3c.031-.254.058-.513.081-.769a1.318,1.318,0,0,1,2.625.229c-.025.286-.055.575-.09.858h0a25.553,25.553,0,0,1-.448,2.571,1.319,1.319,0,0,1-1.284,1.025Z" transform="translate(-517.825 -270.432)" fill="#202387"/>
  <path id="Path_56" data-name="Path 56" d="M590.258,257.83a1.317,1.317,0,0,1-1.3-1.112,22.231,22.231,0,0,0-.7-3.027,1.318,1.318,0,0,1,2.52-.77,24.914,24.914,0,0,1,.781,3.387,1.318,1.318,0,0,1-1.1,1.506,1.278,1.278,0,0,1-.206.016Z" transform="translate(-515.441 -220.006)" fill="#202387"/>
  <path id="Path_57" data-name="Path 57" d="M563.357,204.432a1.317,1.317,0,0,1-1.132-.64,22.464,22.464,0,0,0-1.779-2.55,1.318,1.318,0,0,1,2.052-1.654,25.15,25.15,0,0,1,1.988,2.848,1.317,1.317,0,0,1-1.129,2Z" transform="translate(-491.613 -175.069)" fill="#202387"/>
</svg>
