<svg id="noun-truck-106458" xmlns="http://www.w3.org/2000/svg" width="101.303" height="52.261" viewBox="0 0 101.303 52.261">
  <path id="Path_25" data-name="Path 25" d="M321.56,149.98H252.12v34.1h69.44Z" transform="translate(-251.236 -149.98)" fill="#202387"/>
  <path id="Path_26" data-name="Path 26" d="M165.105,339.68a7.066,7.066,0,1,1-7.069,7.068,7.067,7.067,0,0,1,7.069-7.068m0,10.138a3.071,3.071,0,1,0-3.071-3.071,3.072,3.072,0,0,0,3.071,3.071" transform="translate(-82.938 -301.551)" fill="#202387"/>
  <path id="Path_27" data-name="Path 27" d="M171.191,200.75h12.634c3.788,0,6.947.21,8.419,3.788s4.841,12.844,4.841,12.844v11.65H199.3v7.547h-9.96c.027-.277.042-.556.042-.835a9.217,9.217,0,0,0-18.434,0c0,.279.016.558.041.835H160l-4.582-4.161H144.38a9.216,9.216,0,0,0-4.753-5.044h31.562Zm4.522,10.641,5.449,5.02H193c-.753-2.054-2.551-6.936-3.452-9.123-1.153-2.806-3.631-2.97-6.6-2.97h-7.23ZM127.2,232.417h-3.8a9.222,9.222,0,0,0-4.753-5.048h13.3a9.244,9.244,0,0,0-4.753,5.048Zm-16.225-5.048a9.239,9.239,0,0,0-4.753,5.048H98v-5.048Z" transform="translate(-97.996 -190.545)" fill="#202387"/>
  <path id="Path_28" data-name="Path 28" d="M385.853,339.68a7.066,7.066,0,1,1-7.071,7.068,7.069,7.069,0,0,1,7.071-7.068m0,10.138a3.071,3.071,0,1,0-3.071-3.071,3.072,3.072,0,0,0,3.071,3.071" transform="translate(-348.056 -301.551)" fill="#202387"/>
  <path id="Path_29" data-name="Path 29" d="M490.21,339.68a7.066,7.066,0,1,1-7.064,7.068,7.069,7.069,0,0,1,7.064-7.068m0,10.138a3.071,3.071,0,1,0-3.071-3.071,3.071,3.071,0,0,0,3.071,3.071" transform="translate(-473.393 -301.551)" fill="#202387"/>
</svg>
